<svg xmlns="http://www.w3.org/2000/svg"  viewBox="0 0 50 50" width="50px" height="50px"><path d="M 25 0 C 24.448 0 24 0.448 24 1 L 24 4.5351562 C 24.299 4.3601563 24.638 4.25 25 4.25 C 25.362 4.25 25.701 4.3601563 26 4.5351562 L 26 1 C 26 0.448 25.552 0 25 0 z M 35.833984 1.8476562 A 1.0001 1.0001 0 0 0 34.878906 2.5527344 L 30.408203 16.3125 A 1.000281 1.000281 0 1 0 32.310547 16.931641 L 36.78125 3.171875 A 1.0001 1.0001 0 0 0 35.833984 1.8476562 z M 14.136719 1.8496094 A 1.0001 1.0001 0 0 0 13.21875 3.171875 L 17.689453 16.931641 A 1.000281 1.000281 0 1 0 19.591797 16.3125 L 15.121094 2.5527344 A 1.0001 1.0001 0 0 0 14.136719 1.8496094 z M 5 2 L 4 4.5 L 1.5 5.5 L 4 6.5 L 5 9 L 6 6.5 L 8.5 5.5 L 6 4.5 L 5 2 z M 45 2 L 44 4.5 L 41.5 5.5 L 44 6.5 L 45 9 L 46 6.5 L 48.5 5.5 L 46 4.5 L 45 2 z M 25 6.25 L 24 8.75 L 21.5 9.75 L 24 10.75 L 25 13.25 L 26 10.75 L 28.5 9.75 L 26 8.75 L 25 6.25 z M 7.5039062 8.1230469 L 6.8574219 9.7421875 C 6.7834219 9.9261875 6.6825 10.094141 6.5625 10.244141 L 10.882812 16.294922 C 11.077813 16.567922 11.385266 16.714844 11.697266 16.714844 C 11.898266 16.714844 12.101344 16.653344 12.277344 16.527344 C 12.727344 16.206344 12.831766 15.582813 12.509766 15.132812 L 7.5039062 8.1230469 z M 42.494141 8.1230469 L 37.488281 15.132812 C 37.167281 15.581812 37.271703 16.206344 37.720703 16.527344 C 37.896703 16.653344 38.099781 16.714844 38.300781 16.714844 C 38.612781 16.714844 38.921234 16.567922 39.115234 16.294922 L 43.435547 10.244141 C 43.317547 10.094141 43.216578 9.9261875 43.142578 9.7421875 L 42.494141 8.1230469 z M 24 14.964844 L 24 18.5 C 24 19.052 24.448 19.5 25 19.5 C 25.552 19.5 26 19.052 26 18.5 L 26 14.964844 C 25.701 15.139844 25.362 15.25 25 15.25 C 24.638 15.25 24.299 15.139844 24 14.964844 z M 9 18.826172 A 1.0001 1.0001 0 0 0 8 19.826172 L 8 21.998047 L 6.5390625 21.998047 C 5.9107221 21.998047 5.3237715 22.182909 4.8496094 22.539062 C 4.3754472 22.895217 3.9980469 23.476453 3.9980469 24.15625 L 3.9980469 44.84375 C 3.9980469 45.523547 4.3754472 46.104784 4.8496094 46.460938 C 5.3237715 46.81709 5.9107221 47.001953 6.5390625 47.001953 L 20.462891 47.001953 C 20.962572 47.585012 22.321759 49.001953 25.001953 49.001953 C 27.682148 49.001953 29.039381 47.585012 29.539062 47.001953 L 43.462891 47.001953 C 44.091231 47.001953 44.678182 46.81709 45.152344 46.460938 C 45.626506 46.104784 46.003906 45.523547 46.003906 44.84375 L 46.003906 24.15625 A 1.0011001 1.0011001 0 0 0 46.003906 24.154297 C 46.001806 23.475351 45.6245 22.894857 45.150391 22.539062 C 44.676281 22.183269 44.089277 21.998047 43.460938 21.998047 L 42 21.998047 L 42 19.826172 A 1.0001 1.0001 0 0 0 41 18.826172 C 34.591906 18.826172 30.4753 19.711339 27.923828 20.630859 C 26.648092 21.09062 25.764017 21.55888 25.185547 21.927734 C 25.066882 22.0034 25.096855 22.000752 25 22.070312 C 24.903145 22.000751 24.933118 22.0034 24.814453 21.927734 C 24.235983 21.55888 23.351908 21.09062 22.076172 20.630859 C 19.5247 19.711339 15.408094 18.826172 9 18.826172 z M 10 20.896484 C 15.536195 20.99774 19.257161 21.741981 21.398438 22.513672 C 22.5437 22.926412 23.290501 23.329713 23.738281 23.615234 C 23.954234 23.752934 23.919499 23.742991 24 23.806641 L 24 41.607422 C 23.450667 41.403354 22.901006 41.192178 21.943359 40.962891 C 19.57843 40.39666 15.675593 39.885737 10 39.818359 L 10 20.896484 z M 40 20.896484 L 40 39.818359 C 34.324407 39.885737 30.42157 40.39666 28.056641 40.962891 C 27.098994 41.192178 26.549333 41.403354 26 41.607422 L 26 23.806641 C 26.0805 23.742991 26.04577 23.752931 26.261719 23.615234 C 26.709499 23.329713 27.456299 22.926412 28.601562 22.513672 C 30.742839 21.741981 34.463805 20.99774 40 20.896484 z M 6.5390625 24.001953 L 8 24.001953 L 8 40.771484 A 1.0001 1.0001 0 0 0 9 41.771484 C 15.219253 41.771484 19.143646 42.347217 21.478516 42.90625 C 22.64595 43.185766 23.415732 43.461407 23.878906 43.65625 C 24.34208 43.851093 24.439453 43.925781 24.439453 43.925781 A 1.0001 1.0001 0 0 0 24.445312 43.929688 A 1.0001 1.0001 0 0 0 24.488281 43.955078 A 1.0001 1.0001 0 0 0 24.546875 43.988281 A 1.0001 1.0001 0 0 0 24.638672 44.029297 A 1.0001 1.0001 0 0 0 24.730469 44.060547 A 1.0001 1.0001 0 0 0 24.806641 44.078125 A 1.0001 1.0001 0 0 0 24.878906 44.089844 A 1.0001 1.0001 0 0 0 24.904297 44.09375 A 1.0001 1.0001 0 0 0 25.011719 44.097656 A 1.0001 1.0001 0 0 0 25.099609 44.091797 A 1.0001 1.0001 0 0 0 25.105469 44.091797 A 1.0001 1.0001 0 0 0 25.107422 44.091797 A 1.0001 1.0001 0 0 0 25.203125 44.076172 A 1.0001 1.0001 0 0 0 25.300781 44.050781 A 1.0001 1.0001 0 0 0 25.373047 44.025391 A 1.0001 1.0001 0 0 0 25.394531 44.017578 A 1.0001 1.0001 0 0 0 25.416016 44.007812 A 1.0001 1.0001 0 0 0 25.484375 43.972656 A 1.0001 1.0001 0 0 0 25.488281 43.96875 A 1.0001 1.0001 0 0 0 25.560547 43.925781 C 25.560547 43.925781 25.657917 43.851091 26.121094 43.65625 C 26.584268 43.461407 27.35405 43.185766 28.521484 42.90625 C 30.856226 42.347297 34.780747 41.771484 41 41.771484 A 1.0001 1.0001 0 0 0 42 40.771484 L 42 24.001953 L 43.460938 24.001953 C 43.682597 24.001953 43.863375 24.075713 43.947266 24.138672 C 43.986185 24.167877 43.997491 24.179541 44.001953 24.183594 L 44.001953 44.818359 C 43.997537 44.822094 43.986988 44.832955 43.949219 44.861328 C 43.865879 44.923928 43.68455 44.998047 43.462891 44.998047 L 29.167969 44.998047 A 1.0011001 1.0011001 0 0 0 28.345703 45.429688 C 28.345703 45.429688 27.298339 46.998047 25.001953 46.998047 C 22.705568 46.998047 21.65625 45.429687 21.65625 45.429688 A 1.0011001 1.0011001 0 0 0 20.833984 44.998047 L 6.5390625 44.998047 C 6.3174029 44.998047 6.1360722 44.923927 6.0527344 44.861328 C 6.0150353 44.83301 6.0059623 44.822128 6.0019531 44.818359 L 6.0019531 24.181641 C 6.0059623 24.177871 6.0150353 24.16699 6.0527344 24.138672 C 6.1360724 24.076072 6.3174029 24.001953 6.5390625 24.001953 z"/></svg>